<?xml version="1.0" standalone="no"?>
<!DOCTYPE svg PUBLIC "-//W3C//DTD SVG 20010904//EN"
 "http://www.w3.org/TR/2001/REC-SVG-20010904/DTD/svg10.dtd">
<svg version="1.0" xmlns="http://www.w3.org/2000/svg"
 width="299.000000pt" height="299.000000pt" viewBox="0 0 299.000000 299.000000"
 preserveAspectRatio="xMidYMid meet">
<metadata>
Created by potrace 1.14, written by Peter Selinger 2001-2017
</metadata>
<g transform="translate(0.000000,299.000000) scale(0.100000,-0.100000)"
fill="#000000" stroke="none">
<path d="M0 1495 l0 -1495 1495 0 1495 0 0 1495 0 1495 -1495 0 -1495 0 0
-1495z m1730 910 c109 -17 254 -68 367 -127 180 -94 335 -266 425 -473 72
-164 101 -266 134 -465 19 -112 22 -528 5 -572 -10 -26 -15 -28 -66 -28 l-55
0 0 63 c0 174 -42 430 -86 526 -36 79 -98 158 -152 192 -53 34 -114 38 -168
13 -132 -63 -253 -367 -290 -726 l-7 -68 -187 0 -187 0 -6 58 c-9 82 -42 163
-91 219 -22 27 -43 49 -46 49 -3 1 -25 12 -50 25 -61 32 -172 32 -244 1 -57
-26 -60 -26 -50 -9 4 7 3 9 -2 4 -5 -5 -8 -12 -8 -15 1 -4 -14 -24 -33 -46
-45 -50 -91 -147 -105 -225 l-12 -61 -172 0 -172 0 -5 33 c-3 17 -17 79 -31
136 -70 275 -87 524 -47 716 22 110 73 259 96 285 8 9 15 20 15 25 0 6 83 123
116 164 2 2 12 -2 21 -10 14 -10 16 -10 6 0 -9 11 -7 19 10 37 40 43 171 135
185 129 7 -2 11 -1 8 3 -6 10 142 74 234 101 69 21 186 48 235 54 81 11 328 6
415 -8z"/>
<path d="M1625 2253 c-37 -10 -75 -44 -98 -86 -20 -38 -22 -55 -22 -197 1
-218 37 -343 118 -401 37 -27 48 -30 93 -27 98 8 99 9 185 341 41 161 73 297
71 304 -2 6 -34 24 -70 39 -53 21 -87 27 -162 30 -52 2 -104 0 -115 -3z"/>
<path d="M2046 2008 c-9 -12 -16 -28 -16 -34 0 -19 35 -44 61 -44 32 0 49 17
49 50 0 14 -5 31 -12 38 -20 20 -65 14 -82 -10z"/>
</g>
</svg>
